<?xml version="1.0" encoding="utf-8"?>
<!-- Generator: Adobe Illustrator 26.2.1, SVG Export Plug-In . SVG Version: 6.00 Build 0)  -->
<svg version="1.1" id="Layer_1" xmlns="http://www.w3.org/2000/svg" xmlns:xlink="http://www.w3.org/1999/xlink" x="0px" y="0px"
	 viewBox="0 0 300 74" style="enable-background:new 0 0 300 74;" xml:space="preserve">
<path d="M285.2,43.1c-0.7,0.4-1.5,0.8-2.3,1c-0.9,0.2-1.7,0.3-2.6,0.3c-1.1,0-2.2-0.2-3.3-0.5c-0.9-0.3-1.8-0.8-2.5-1.5
	c-0.7-0.6-1.2-1.4-1.5-2.3c-0.4-1-0.5-2-0.5-3c0-1,0.2-2.1,0.6-3c0.4-0.9,0.9-1.7,1.6-2.4c0.7-0.7,1.5-1.2,2.5-1.5
	c1-0.4,2.1-0.6,3.2-0.5c1.4,0,2.7,0.2,4,0.8l-0.6,4.1c-0.4-0.2-0.9-0.4-1.4-0.4c-0.4-0.1-0.9-0.1-1.4-0.1c-0.9-0.1-1.9,0.2-2.6,0.8
	c-1.2,1.2-1.3,3.2,0,4.5c0,0,0,0,0,0c0.8,0.6,1.7,0.9,2.7,0.8c0.4,0,0.8,0,1.2-0.1c0.4-0.1,0.8-0.2,1.2-0.3L285.2,43.1z M263.3,40.1
	c0.8,0,1.5-0.3,2-0.9c1.1-1.3,1.1-3.2,0-4.5c-0.5-0.6-1.3-0.9-2-0.9c-0.8,0-1.5,0.3-2.1,0.9c-1.1,1.3-1.1,3.2,0,4.5
	C261.8,39.8,262.6,40.1,263.3,40.1 M262,44.5c-0.9,0-1.8-0.2-2.6-0.5c-0.8-0.4-1.5-0.9-2-1.5c-0.6-0.7-1-1.5-1.3-2.3
	c-0.3-1-0.5-2-0.5-3c0-1,0.2-2,0.5-3c0.3-0.9,0.8-1.7,1.4-2.4c0.6-0.7,1.3-1.2,2.1-1.6c0.8-0.4,1.7-0.6,2.6-0.6
	c0.8,0,1.6,0.2,2.3,0.5c0.7,0.4,1.3,0.9,1.7,1.5l0.1-1.6h4.6V44h-4.6l-0.1-1.6c-0.4,0.7-1,1.2-1.7,1.5
	C263.7,44.3,262.8,44.5,262,44.5 M246.3,40.1c0.8,0,1.5-0.3,2.1-0.9c1.1-1.3,1.1-3.2,0-4.5c-0.5-0.6-1.3-0.9-2.1-0.9
	c-0.8,0-1.5,0.3-2,0.9c-1.1,1.3-1.1,3.2,0,4.5C244.7,39.8,245.5,40.1,246.3,40.1 M238.8,29.9h4.6l0.1,1.6c0.4-0.7,1-1.2,1.7-1.5
	c0.8-0.4,1.6-0.5,2.4-0.5c0.9,0,1.8,0.2,2.6,0.5c0.8,0.4,1.5,0.9,2,1.5c0.6,0.7,1,1.5,1.3,2.3c0.3,1,0.5,2,0.5,3c0,1-0.2,2-0.5,3
	c-0.3,0.9-0.8,1.7-1.4,2.4c-0.6,0.7-1.3,1.2-2.1,1.6c-0.8,0.4-1.7,0.6-2.6,0.6c-0.7,0-1.5-0.1-2.1-0.5c-0.6-0.3-1.2-0.7-1.6-1.3v7.4
	h-4.9L238.8,29.9z M231.3,33.1c-1,0-1.5,0.3-1.5,0.8c0,0.3,0.2,0.6,0.4,0.7c0.5,0.3,1.1,0.4,1.7,0.6c1.4,0.3,2.6,0.9,3.7,1.8
	c0.8,0.8,1.2,1.9,1.1,3.1c0.1,1.3-0.6,2.6-1.7,3.3c-1.1,0.8-2.7,1.2-4.7,1.2c-1.1,0-2.1-0.1-3.2-0.4c-0.9-0.2-1.7-0.5-2.4-1l1.6-2.9
	c1.2,0.4,2.4,0.7,3.7,0.7c1.2,0,1.8-0.3,1.8-0.8c0-0.1,0-0.3-0.1-0.4c-0.1-0.1-0.2-0.2-0.3-0.3c-0.2-0.1-0.4-0.2-0.6-0.3
	c-0.3-0.1-0.6-0.2-1-0.3c-0.8-0.2-1.5-0.4-2.2-0.8c-0.5-0.3-1.1-0.6-1.5-1c-0.4-0.4-0.6-0.8-0.8-1.3c-0.2-0.5-0.3-1.1-0.3-1.7
	c-0.1-1.3,0.5-2.5,1.5-3.3c1.3-0.9,2.9-1.3,4.5-1.2c0.9,0,1.9,0.1,2.8,0.3c0.8,0.2,1.6,0.4,2.3,0.8l-0.5,3.5
	c-0.7-0.3-1.4-0.6-2.1-0.8C232.8,33.2,232,33.1,231.3,33.1 M215.6,40.3c0.8,0,1.7-0.3,2.2-0.9c1.1-1.4,1.1-3.4,0-4.9
	c-1.2-1.2-3.2-1.2-4.4,0c0,0,0,0,0,0c-1.1,1.4-1.1,3.4,0,4.9C213.9,40,214.7,40.4,215.6,40.3 M215.6,44.5c-1.1,0-2.1-0.2-3.1-0.6
	c-1.8-0.7-3.3-2.1-4.1-3.9c-0.4-0.9-0.6-2-0.6-3c0-1,0.2-2,0.6-3c0.8-1.8,2.2-3.2,4.1-3.9c2-0.7,4.2-0.7,6.2,0
	c0.9,0.4,1.7,0.9,2.5,1.6c0.7,0.7,1.2,1.5,1.6,2.4c0.4,0.9,0.6,2,0.6,3c0,2-0.8,3.9-2.2,5.3c-0.7,0.7-1.5,1.2-2.4,1.6
	C217.7,44.3,216.6,44.5,215.6,44.5 M196.9,29.9h4.8l0.1,2.1c0.3-0.7,0.8-1.3,1.4-1.8c0.6-0.4,1.4-0.6,2.1-0.6c0.6,0,1.1,0.1,1.6,0.3
	l-0.4,4.6c-0.3-0.1-0.6-0.2-0.9-0.3c-0.3-0.1-0.6-0.1-0.9-0.1c-1.9,0-2.9,1.2-2.9,3.7v6h-4.9V29.9z M171.2,35.1l-2.4-7.1l-2.4,7.1
	H171.2z M166.2,23.3h5.7L180,44h-5.8l-1.6-4.8h-7.6l-1.6,4.8h-5.4L166.2,23.3z M146.3,33.1c-1,0-1.5,0.3-1.5,0.8
	c0,0.3,0.2,0.6,0.4,0.7c0.5,0.3,1.1,0.4,1.7,0.6c1.4,0.2,2.6,0.9,3.7,1.8c0.8,0.8,1.2,1.9,1.1,3.1c0.1,1.3-0.6,2.6-1.7,3.3
	c-1.1,0.8-2.7,1.2-4.7,1.2c-1.1,0-2.1-0.1-3.2-0.4c-0.9-0.2-1.7-0.5-2.4-1l1.6-2.9c1.2,0.4,2.4,0.7,3.7,0.7c1.2,0,1.8-0.3,1.8-0.8
	c0-0.1,0-0.3-0.1-0.4c-0.1-0.1-0.2-0.2-0.3-0.3c-0.2-0.1-0.4-0.2-0.6-0.3c-0.3-0.1-0.6-0.2-1-0.3c-0.8-0.2-1.5-0.4-2.2-0.8
	c-0.5-0.3-1-0.6-1.5-1c-0.4-0.4-0.7-0.8-0.8-1.3c-0.2-0.5-0.3-1.1-0.3-1.7c-0.1-1.3,0.5-2.5,1.6-3.3c1.3-0.9,2.9-1.3,4.5-1.2
	c0.9,0,1.9,0.1,2.8,0.3c0.8,0.2,1.6,0.4,2.3,0.8l-0.5,3.5c-0.7-0.3-1.4-0.6-2.1-0.8C147.8,33.2,147.1,33.1,146.3,33.1 M123.9,29.9
	h4.8l0.1,1.7c0.4-0.7,0.9-1.2,1.6-1.6c0.8-0.4,1.6-0.6,2.4-0.6c1.4-0.1,2.7,0.5,3.7,1.5c0.8,1,1.2,2.5,1.2,4.5V44h-4.9v-7.6
	c0-1.7-0.6-2.5-1.9-2.5c-0.6,0-1.2,0.2-1.6,0.7c-0.4,0.6-0.6,1.3-0.5,2V44h-4.9L123.9,29.9z M115.8,29.9h4.9V44h-4.9L115.8,29.9z
	 M118.3,27.7c-0.7,0-1.4-0.2-2-0.8c-1-1-1.1-2.7-0.1-3.7c0,0,0,0,0.1-0.1c1.1-1,2.8-1,3.9,0c0.5,0.5,0.8,1.2,0.8,1.9
	c0,0.7-0.3,1.4-0.8,1.9C119.7,27.5,119,27.8,118.3,27.7 M107.4,23.3h4.9v20.7h-4.9L107.4,23.3z M99.4,23.3h4.9v20.7h-4.9V23.3z
	 M89.6,40.4c0.8,0,1.7-0.3,2.2-0.9c1.1-1.4,1.1-3.4,0-4.9c-0.6-0.6-1.4-1-2.2-0.9c-0.8,0-1.7,0.3-2.2,0.9c-1.1,1.4-1.1,3.4,0,4.9
	C87.9,40.1,88.7,40.4,89.6,40.4 M89.6,44.5c-1.1,0-2.1-0.2-3.1-0.6c-0.9-0.4-1.8-1-2.5-1.7c-0.7-0.7-1.3-1.5-1.6-2.5
	c-0.4-1-0.6-2-0.6-3c0-1,0.2-2,0.6-2.9c0.4-0.8,0.9-1.6,1.6-2.2c0.7-0.6,1.6-1.1,2.5-1.5c1-0.4,2-0.5,3.1-0.5c1.1,0,2.1,0.2,3.1,0.6
	c0.9,0.4,1.7,0.9,2.5,1.6c0.7,0.7,1.2,1.5,1.6,2.4c0.4,0.9,0.6,2,0.6,3c0,2-0.8,3.9-2.2,5.3c-0.7,0.7-1.5,1.2-2.4,1.6
	C91.7,44.3,90.6,44.5,89.6,44.5 M80.6,42.1c-1,0.8-2.2,1.3-3.4,1.7c-1.3,0.4-2.7,0.6-4.1,0.6c-1.5,0-3-0.2-4.5-0.7
	c-1.3-0.4-2.4-1.1-3.4-2.1c-1-0.9-1.7-2.1-2.1-3.3c-0.5-1.4-0.8-3-0.7-4.5c0-1.5,0.3-3,0.8-4.3c0.5-1.3,1.3-2.4,2.3-3.4
	c1-1,2.3-1.7,3.6-2.2c1.5-0.5,3-0.8,4.6-0.8c0.6,0,1.2,0,1.8,0.1c1.2,0.2,2.4,0.5,3.5,0.9c0.5,0.2,1,0.4,1.4,0.6l-2.2,4.3l-1.1-0.5
	c-0.3-0.1-0.6-0.3-1-0.4c-0.3-0.1-0.7-0.2-1-0.2c-0.4,0-0.8-0.1-1.2-0.1c-1.6-0.1-3.2,0.5-4.5,1.6c-1.1,1.1-1.7,2.7-1.6,4.3
	c0,0.8,0.1,1.6,0.4,2.4c0.2,0.7,0.6,1.3,1.2,1.9c0.5,0.5,1.1,0.9,1.8,1.2c0.8,0.3,1.6,0.4,2.4,0.4c0.8,0,1.6-0.1,2.4-0.4
	c0.8-0.3,1.5-0.7,2.2-1.2L80.6,42.1z M20,11.9c0.6-0.1,1.1-0.2,1.7-0.3l2.6,15.1c-0.6,0-1.1,0.1-1.7,0.3L20,11.9z M19.3,28.6
	c0.6-0.4,1.2-0.7,1.8-1l-7.6-13.3c-0.6,0.3-1.2,0.6-1.8,1L19.3,28.6z M15,37c0-0.6,0-1.1,0.1-1.7H-0.1c0,0.5-0.1,1.1-0.1,1.6
	c0,0.5,0,1,0,1.5h15.1C15,38,15,37.5,15,37 M35.5,37c0,5.7-4.6,10.3-10.3,10.3c-5,0-9.3-3.6-10.1-8.5L0.9,44
	c0.3,1.1,0.7,2.2,1.2,3.2L16.2,42L4.6,51.8c0.7,1,1.5,2,2.4,2.9l10.8-9.1l-7.1,12.3c1.1,0.8,2.3,1.5,3.5,2.1L21,48.4l-2.3,13.2
	c1.4,0.4,2.9,0.6,4.4,0.8L25.2,50l2.2,12.3c1.5-0.1,3.1-0.4,4.6-0.8l-2-11.5l5.8,10.1c1.6-0.7,3.1-1.6,4.5-2.6l-5.3-9.2l8.1,6.9
	c1.3-1.3,2.5-2.7,3.4-4.2l-7.2-6.1l8.9,3.3c0.8-1.7,1.5-3.5,1.9-5.4l-7.8-2.9h8.3c0.1-1,0.2-1.9,0.2-2.9c0-1.1-0.1-2.2-0.2-3.3H34.9
	C35.3,34.6,35.5,35.8,35.5,37 M15.2,34.7c0.2-0.9,0.5-1.7,1-2.5L2,26.9c-0.4,0.8-0.7,1.7-0.9,2.6L15.2,34.7z M44.4,20.2L32.7,30
	c0.3,0.3,0.5,0.6,0.8,1l11.6-9.8C44.9,20.8,44.6,20.5,44.4,20.2 M38.6,15.2c-0.4-0.3-0.8-0.5-1.2-0.7l-7.6,13.3
	c0.4,0.2,0.9,0.5,1.3,0.7L38.6,15.2z M18.3,29.4L6.6,19.6c-0.5,0.6-1,1.2-1.5,1.8l11.6,9.8C17.2,30.6,17.7,30,18.3,29.4 M26.3,26.8
	c0.5,0,1,0.1,1.5,0.3l2.6-15.1c-0.5-0.1-1-0.2-1.5-0.3L26.3,26.8z M194.6,36.6c0-1-0.2-2-0.5-2.9c-0.3-0.8-0.8-1.6-1.4-2.2
	c-0.6-0.6-1.4-1.1-2.2-1.4c-0.9-0.3-1.9-0.5-2.9-0.5c-1,0-2,0.2-3,0.5c-0.9,0.3-1.7,0.9-2.3,1.5c-0.7,0.7-1.2,1.5-1.5,2.4
	c-0.4,1-0.5,2-0.5,3c0,1.1,0.2,2.1,0.6,3.1c0.4,0.9,1,1.7,1.7,2.4c0.8,0.7,1.7,1.2,2.7,1.5c1.1,0.4,2.3,0.5,3.5,0.5
	c1.1,0,2.1-0.1,3.1-0.4c0.9-0.2,1.8-0.6,2.6-1.1l-1.6-3.1c-0.6,0.3-1.3,0.5-1.9,0.6c-0.6,0.1-1.2,0.2-1.8,0.2
	c-2.2,0-4.2-0.8-4.7-2.4h9.9C194.5,37.7,194.6,37.1,194.6,36.6 M184.5,35.7c0.4-1.9,1.4-2.9,3.1-2.9c0.7,0,1.5,0.2,2,0.7
	c0.5,0.6,0.9,1.3,0.9,2.1L184.5,35.7z M300.1,36.6c0-1-0.1-2-0.5-2.9c-0.3-0.8-0.8-1.6-1.4-2.2c-0.6-0.6-1.4-1.1-2.2-1.4
	c-0.9-0.3-1.9-0.5-2.9-0.5c-1,0-2,0.2-3,0.5c-0.9,0.3-1.7,0.9-2.3,1.5c-0.7,0.7-1.2,1.5-1.5,2.4c-0.4,1-0.5,2-0.5,3
	c0,1.1,0.2,2.1,0.6,3.1c0.4,0.9,1,1.7,1.7,2.4c0.8,0.7,1.7,1.2,2.7,1.5c1.1,0.4,2.3,0.5,3.5,0.5c1.1,0,2.1-0.1,3.2-0.4
	c0.9-0.2,1.8-0.6,2.5-1.1l-1.6-3.1c-0.6,0.3-1.3,0.5-1.9,0.6c-0.6,0.1-1.2,0.2-1.8,0.2c-2.2,0-4.2-0.8-4.7-2.4h9.9
	C300,37.7,300.1,37.1,300.1,36.6 M290,35.7c0.4-1.9,1.4-2.9,3.1-2.9c0.7,0,1.5,0.2,2,0.7c0.5,0.6,0.9,1.3,0.9,2.1L290,35.7z"/>
</svg>
